:SAMPLES-PER-SECOND 30
:FULLY-SPECIFIED
:DEGREES
166
root  7.93795 38.8155 -0.12845 9.40756 -84.4387 -15.7726
RightUpLeg  -10.9079 -6.98087 1.23063
RightLeg  19.4423 6.05418 2.48965
RightFoot  -1.78929 0.346293 -4.28527
RightToes  -1.16417e-010 0 -3.6325e-017
Spine  6.87813 0.635975 10.6214
Spine1  7.03188 1.9485 -1.97931
HEad  -17.3723 -4.22472 -1.25405
LeftShoulder1  -0.458133 4.71529 -31.6735
LeftArm  4.44409 9.06431 -43.1486
LeftForeArm  30.5302 -14.4948 -7.57403
LeftHand  -0.163636 9.6334 -2.86282
RightShoulder  -0.782665 -5.8085 27.3286
RightArm  25.6805 5.45097 50.3494
RightForeArm  8.11978 21.4135 4.61584
RightHand  -0.0824993 4.21469 -1.27425
LeftUpLeg  -16.3073 5.97114 2.92372
LeftLeg  38.0291 -0.0993647 0.336187
LeftFoot  -6.63031 0.237883 -4.6802
LeftToes  3.13772e-010 -3.14513e-011 3.96022e-013
167
root  7.3444 39.0352 -0.0512145 7.96692 -85.0611 -14.4362
RightUpLeg  -8.9678 -6.85572 0.89777
RightLeg  17.8374 6.58905 2.41749
RightFoot  -1.86913 0.352098 -4.39907
RightToes  -1.16417e-010 0 -3.6325e-017
Spine  5.76742 0.952693 10.3064
Spine1  8.15463 2.23295 -2.47446
HEad  -16.3102 -3.88088 -1.95003
LeftShoulder1  -0.471513 4.74623 -31.8117
LeftArm  5.41958 9.08322 -43.2863
LeftForeArm  29.0738 -15.396 -7.16434
LeftHand  -0.126175 9.06469 -2.29868
RightShoulder  -0.72107 -5.65721 26.8334
RightArm  27.6541 5.78722 50.7558
RightForeArm  7.64208 21.6132 4.64827
RightHand  -0.0678516 3.95178 -1.11114
LeftUpLeg  -12.9123 3.41995 2.74015
LeftLeg  25.5639 -0.861771 -0.156403
LeftFoot  -5.73042 0.150155 -3.02755
LeftToes  3.13772e-010 -3.14513e-011 3.96022e-013
168
root  6.78764 39.2694 0.0359431 7.35605 -85.8458 -14.0831
RightUpLeg  -6.7223 -6.37866 0.629465
RightLeg  15.7536 6.95758 2.10101
RightFoot  -1.8082 0.327992 -4.07655
RightToes  -1.16417e-010 0 -3.6325e-017
Spine  4.76729 1.06724 9.98331
Spine1  8.99751 2.51589 -3.67627
HEad  -14.6635 -3.17847 -1.84081
LeftShoulder1  -0.492193 4.80765 -31.5912
LeftArm  5.74937 9.1369 -43.5946
LeftForeArm  28.1203 -15.8753 -6.91736
LeftHand  -0.151816 9.74273 -2.50256
RightShoulder  -0.715523 -5.6242 27.0859
RightArm  29.6817 6.39874 50.9375
RightForeArm  7.09539 20.8694 4.9102
RightHand  -0.0841653 4.26627 -1.29025
LeftUpLeg  -10.0386 0.828905 2.31429
LeftLeg  18.0933 0.196768 0.410253
LeftFoot  -2.39693 -0.166892 2.53814
LeftToes  3.13772e-010 -3.14513e-011 3.96022e-013
169
root  6.31273 39.3374 0.127643 9.6918 -86.0146 -16.6468
RightUpLeg  -5.64977 -5.87271 0.751763
RightLeg  15.6469 6.77723 1.74776
RightFoot  -2.35793 0.299515 -4.01139
RightToes  -1.16417e-010 0 -3.6325e-017
Spine  3.99159 0.92636 8.71429
Spine1  9.62993 2.05168 -2.60809
HEad  -13.1062 -1.85978 -2.50606
LeftShoulder1  -0.586626 5.03241 -32.2331
LeftArm  6.17748 8.10483 -43.3013
LeftForeArm  27.9819 -15.3977 -7.30135
LeftHand  -0.13844 9.73646 -2.16297
RightShoulder  -0.783577 -5.76584 28.0004
RightArm  31.7345 8.19624 50.6746
RightForeArm  7.26295 18.7937 5.82569
RightHand  -0.134755 4.05579 -1.92946
LeftUpLeg  -8.84737 -0.547834 2.14492
LeftLeg  18.2941 2.09385 1.09568
LeftFoot  -2.56162 -0.270241 3.70769
LeftToes  3.13772e-010 -3.14513e-011 3.96022e-013
170
root  5.86208 39.5254 0.146607 -3.83127 -85.2956 -3.37753
RightUpLeg  -3.95675 -6.14068 -0.28537
RightLeg  14.557 6.45242 1.2873
RightFoot  -2.57881 0.2558 -3.5626
RightToes  -1.16417e-010 0 -3.6325e-017
Spine  2.95385 0.701884 5.5117
Spine1  10.7947 1.26694 -0.781755
HEad  -12.0739 -1.17841 -2.58517
LeftShoulder1  -0.57948 4.98992 -32.8489
LeftArm  5.70687 6.13811 -43.0486
LeftForeArm  29.3752 -14.041 -8.08717
LeftHand  -0.127205 9.58844 -1.98027
RightShoulder  -0.87472 -5.98382 28.6877
RightArm  29.6171 9.38751 50.7524
RightForeArm  10.9533 15.9723 7.08243
RightHand  -0.115301 3.61572 -1.72641
LeftUpLeg  -6.5293 -0.338464 1.14424
LeftLeg  15.4684 1.2075 0.748704
LeftFoot  -1.23423 -0.340925 3.94473
LeftToes  3.13772e-010 -3.14513e-011 3.96022e-013
171
root  5.41382 39.6774 0.179215 -12.2701 -84.9524 4.94794
RightUpLeg  -2.40926 -6.63059 -1.18076
RightLeg  13.4011 6.86616 1.11384
RightFoot  -2.81801 0.224896 -3.27394
RightToes  -1.16417e-010 0 -3.6325e-017
Spine  2.11104 0.634285 3.17102
Spine1  11.3258 0.869641 0.342928
HEad  -10.9507 -1.09113 -2.20437
LeftShoulder1  -0.495842 4.77513 -32.8366
LeftArm  5.12827 4.53248 -43.0559
LeftForeArm  31.5641 -12.8325 -8.72025
LeftHand  -0.127513 8.85818 -2.48273
RightShoulder  -0.849169 -5.91408 28.6314
RightArm  23.7292 8.75267 51.6011
RightForeArm  16.9359 13.0288 7.78166
RightHand  -0.0377949 2.84478 -0.758642
LeftUpLeg  -4.36226 1.21842 0.494592
LeftLeg  12.8983 -0.516186 0.431127
LeftFoot  -0.752953 -0.325913 3.56646
LeftToes  3.13772e-010 -3.14513e-011 3.96022e-013
172
root  4.99965 39.8562 0.23224 -18.4099 -85.394 11.0537
RightUpLeg  -0.691287 -6.66325 -1.67807
RightLeg  11.3659 7.57121 0.773843
RightFoot  -2.5126 0.213303 -2.981
RightToes  -1.16417e-010 0 -3.6325e-017
Spine  1.49042 0.752865 2.58253
Spine1  11.3744 1.21028 -0.613393
HEad  -9.10519 -1.74315 -1.75399
LeftShoulder1  -0.432565 4.62623 -32.3985
LeftArm  6.55919 3.36477 -42.9969
LeftForeArm  31.9794 -12.8855 -8.93554
LeftHand  -0.0991918 8.16171 -2.14872
RightShoulder  -0.885141 -5.98708 29.0554
RightArm  18.7034 7.73403 52.1882
RightForeArm  19.9873 10.1057 8.06894
RightHand  -0.0264074 2.50117 -0.591045
LeftUpLeg  -1.95236 3.72906 0.275357
LeftLeg  9.74961 -2.38443 0.149461
LeftFoot  -0.109437 -0.324616 3.30608
LeftToes  3.13772e-010 -3.14513e-011 3.96022e-013
173
root  4.6556 39.9885 0.327001 -23.0602 -85.1085 16.177
RightUpLeg  0.184164 -7.11875 -2.38682
RightLeg  9.83808 8.01686 0.618777
RightFoot  -2.32875 0.210641 -2.87074
RightToes  -1.16417e-010 0 -3.6325e-017
Spine  0.639808 0.593212 1.87347
Spine1  11.3764 1.10646 -0.986736
HEad  -7.62484 -2.12273 -1.942
LeftShoulder1  -0.472171 4.71724 -32.7705
LeftArm  9.38675 2.02931 -42.3853
LeftForeArm  30.3068 -13.8099 -8.82074
LeftHand  -0.107003 8.38528 -2.24097
RightShoulder  -0.933294 -6.11513 29.1703
RightArm  16.1412 6.72449 52.6458
RightForeArm  20.5014 8.21675 8.01471
RightHand  -0.0328582 2.82522 -0.681073
LeftUpLeg  -0.545353 4.37078 -0.225487
LeftLeg  7.07901 -3.04138 0.0252365
LeftFoot  0.615069 -0.357431 3.37587
LeftToes  3.13772e-010 -3.14513e-011 3.96022e-013
174
root  4.32734 40.0853 0.428421 -26.8498 -85.1683 20.5497
RightUpLeg  0.655575 -7.26781 -2.82656
RightLeg  8.72124 8.43272 0.433185
RightFoot  -2.27724 0.20452 -2.77251
RightToes  -1.16417e-010 0 -3.6325e-017
Spine  -0.271578 0.538883 1.71021
Spine1  11.4317 1.219 -1.72756
HEad  -6.77381 -1.53378 -2.68063
LeftShoulder1  -0.460626 4.68729 -32.7701
LeftArm  10.5811 1.24047 -42.2599
LeftForeArm  28.3232 -14.7674 -8.36748
LeftHand  -0.0823171 8.42654 -1.28475
RightShoulder  -0.903208 -6.02625 29.2244
RightArm  16.2736 5.31114 52.6851
RightForeArm  20.4713 8.15059 8.07883
RightHand  -0.029273 3.00433 -0.630207
LeftUpLeg  0.448143 4.61361 -0.5871
LeftLeg  5.00632 -3.01123 -0.0491983
LeftFoot  1.14244 -0.397621 3.57191
LeftToes  3.13772e-010 -3.14513e-011 3.96022e-013
175
root  4.03712 40.1343 0.507418 -29.8969 -85.6199 24.0635
RightUpLeg  0.889318 -7.0304 -2.84685
RightLeg  8.05849 8.76072 0.135921
RightFoot  -2.38613 0.178696 -2.48731
RightToes  -1.16417e-010 0 -3.6325e-017
Spine  -1.12455 0.728193 1.53646
Spine1  11.9727 1.43006 -1.85063
HEad  -6.74874 -2.13713 -3.0467
LeftShoulder1  -0.511844 4.81358 -32.9328
LeftArm  10.5567 0.126698 -42.6625
LeftForeArm  27.2436 -15.303 -8.00343
LeftHand  -0.0574356 8.09177 -0.546209
RightShoulder  -0.908161 -6.03636 29.2756
RightArm  18.1384 4.27829 52.3066
RightForeArm  21.1182 9.24377 8.24436
RightHand  0.0214736 3.064 0.0653772
LeftUpLeg  0.958359 4.72028 -0.702908
LeftLeg  4.06519 -2.59055 -0.0296175
LeftFoot  1.11448 -0.41331 3.72456
LeftToes  3.13772e-010 -3.14513e-011 3.96022e-013
176
root  3.82159 40.1587 0.573718 -30.6513 -85.9439 25.3471
RightUpLeg  0.821608 -6.81794 -2.75203
RightLeg  7.64846 8.86954 -0.0227565
RightFoot  -2.49342 0.161036 -2.29787
RightToes  -1.16417e-010 0 -3.6325e-017
Spine  -1.18064 0.72083 1.65882
Spine1  11.6059 1.52269 -2.34185
HEad  -6.93668 -2.46007 -2.88565
LeftShoulder1  -0.497587 4.79069 -32.5238
LeftArm  10.6822 -0.192872 -43.2906
LeftForeArm  25.2632 -16.3748 -7.27435
LeftHand  -0.0560442 8.2489 -0.41812
RightShoulder  -0.93401 -6.09065 29.5289
RightArm  21.186 3.42552 51.8145
RightForeArm  19.9169 10.3288 8.60824
RightHand  -0.0339739 3.15863 -0.694818
LeftUpLeg  0.952637 4.77108 -0.720318
LeftLeg  3.70132 -2.3252 0.00336215
LeftFoot  0.906836 -0.400838 3.68216
LeftToes  3.13772e-010 -3.14513e-011 3.96022e-013
177
root  3.64112 40.1795 0.64666 -33.6925 -86.2158 28.593
RightUpLeg  1.01903 -6.81866 -2.89321
RightLeg  7.33104 9.2158 -0.114289
RightFoot  -2.67878 0.138689 -2.07076
RightToes  -1.16417e-010 0 -3.6325e-017
Spine  -0.959035 0.7258 0.998367
Spine1  11.5141 1.35668 -1.71134
HEad  -7.40631 -2.02071 -3.4477
LeftShoulder1  -0.483717 4.74588 -32.7954
LeftArm  11.9727 -0.753035 -43.4879
LeftForeArm  22.6779 -17.5395 -6.62832
LeftHand  -0.044328 8.32225 0.041424
RightShoulder  -0.88957 -5.9929 29.153
RightArm  22.5987 2.87272 51.7097
RightForeArm  19.4384 10.8045 8.69494
RightHand  -0.0435581 3.47816 -0.818588
LeftUpLeg  1.25314 4.70962 -0.896187
LeftLeg  3.32994 -1.91592 0.0866315
LeftFoot  0.78948 -0.390476 3.64519
LeftToes  3.13772e-010 -3.14513e-011 3.96022e-013
